<svg width="1305" height="30" viewBox="0 0 1305 30" fill="none" xmlns="http://www.w3.org/2000/svg">
<path d="M0.74467 13.3164C-0.02198 14.0831 -0.02198 15.3261 0.74467 16.0927L13.238 28.586C14.0046 29.3527 15.2476 29.3527 16.0142 28.586C16.7809 27.8194 16.7809 26.5764 16.0142 25.8097L4.9091 14.7046L16.0142 3.59945C16.7809 2.8328 16.7809 1.58981 16.0142 0.823164C15.2476 0.0565138 14.0046 0.0565138 13.238 0.823164L0.74467 13.3164ZM1303.91 16.0927C1304.67 15.3261 1304.67 14.0831 1303.91 13.3164L1291.41 0.823164C1290.65 0.0565138 1289.4 0.0565138 1288.64 0.823164C1287.87 1.58981 1287.87 2.8328 1288.64 3.59945L1299.74 14.7046L1288.64 25.8097C1287.87 26.5764 1287.87 27.8194 1288.64 28.586C1289.4 29.3527 1290.65 29.3527 1291.41 28.586L1303.91 16.0927ZM2.13281 16.6677H1302.52V12.7415H2.13281V16.6677Z" fill="#539BBB"/>
</svg>
