<svg width="22" height="23" viewBox="0 0 22 23" fill="none" xmlns="http://www.w3.org/2000/svg">
<path d="M3.76074 14.1794L4.42593 14.1794L3.76074 14.1794ZM6.18462 17.016L6.09326 17.6749L6.09326 17.6749L6.18462 17.016ZM15.2191 17.016L15.3105 17.6749L15.3105 17.6749L15.2191 17.016ZM17.2291 12.6731L17.8003 12.3323L17.2291 12.6731ZM4.17424 12.6738L3.60287 12.3332L4.17424 12.6738ZM5.96742 8.14902C5.96742 5.5348 8.08666 3.41556 10.7009 3.41556V2.08517C7.35191 2.08517 4.63704 4.80005 4.63704 8.14902H5.96742ZM5.96742 10.0071V8.14902H4.63704V10.0071H5.96742ZM4.42593 14.1794C4.42593 13.7525 4.54268 13.3548 4.7456 13.0145L3.60287 12.3332C3.28055 12.8739 3.09555 13.506 3.09555 14.1794L4.42593 14.1794ZM6.27598 16.3571C5.212 16.2096 4.42593 15.2846 4.42593 14.1794L3.09555 14.1794C3.09555 15.9174 4.34089 17.4319 6.09326 17.6749L6.27598 16.3571ZM10.7019 16.7397C9.3786 16.7397 7.66898 16.5503 6.27598 16.3571L6.09326 17.6749C7.49706 17.8696 9.28216 18.0701 10.7019 18.0701V16.7397ZM15.1278 16.3571C13.7348 16.5503 12.0251 16.7397 10.7019 16.7397V18.0701C12.1216 18.0701 13.9067 17.8696 15.3105 17.6749L15.1278 16.3571ZM16.9778 14.1794C16.9778 15.2846 16.1917 16.2096 15.1278 16.3571L15.3105 17.6749C17.0629 17.4319 18.3082 15.9174 18.3082 14.1794H16.9778ZM16.6578 13.0139C16.8609 13.3544 16.9778 13.7522 16.9778 14.1794H18.3082C18.3082 13.5057 18.123 12.8732 17.8003 12.3323L16.6578 13.0139ZM15.4343 8.14902V10.0046H16.7647V8.14902H15.4343ZM10.7009 3.41556C13.3151 3.41556 15.4343 5.5348 15.4343 8.14902H16.7647C16.7647 4.80005 14.0499 2.08517 10.7009 2.08517V3.41556ZM17.8003 12.3323C17.5262 11.8728 17.2772 11.5046 17.0719 11.0934C16.8753 10.6997 16.7647 10.3484 16.7647 10.0046H15.4343C15.4343 10.6371 15.6385 11.2009 15.8816 11.6877C16.116 12.1571 16.4318 12.635 16.6578 13.0139L17.8003 12.3323ZM4.63704 10.0071C4.63704 10.3506 4.52668 10.7016 4.33035 11.0951C4.12532 11.506 3.87666 11.874 3.60287 12.3332L4.7456 13.0145C4.97136 12.6358 5.2867 12.1582 5.52077 11.689C5.76356 11.2025 5.96742 10.6391 5.96742 10.0071H4.63704Z" fill="#2F667F"/>
<path d="M12.6299 19.4543C12.2154 20.0778 11.5066 20.4886 10.7018 20.4886C9.89702 20.4886 9.18822 20.0778 8.77371 19.4543" stroke="#2F667F" stroke-width="1.33038" stroke-linecap="round"/>
</svg>
