<svg width="22" height="23" viewBox="0 0 22 23" fill="none" xmlns="http://www.w3.org/2000/svg">
<path d="M2.20199 18.7403L2.82918 18.9619H2.82918L2.20199 18.7403ZM3.56008 20.0984L3.78171 20.7256H3.78171L3.56008 20.0984ZM5.79762 19.3078L5.57599 18.6806L5.79762 19.3078ZM6.56509 19.3811L6.88763 18.7993L6.56509 19.3811ZM2.96665 15.6686L2.37506 15.9728L2.96665 15.6686ZM2.65543 11.619C2.65543 7.08802 6.3285 3.41495 10.8595 3.41495V2.08456C5.59375 2.08456 1.32504 6.35327 1.32504 11.619H2.65543ZM3.55824 15.3645C2.98134 14.2424 2.65543 12.9697 2.65543 11.619H1.32504C1.32504 13.1862 1.70368 14.6669 2.37506 15.9728L3.55824 15.3645ZM2.82918 18.9619L3.6526 16.6317L2.39822 16.1884L1.5748 18.5187L2.82918 18.9619ZM3.33846 19.4712C3.02212 19.583 2.71739 19.2783 2.82918 18.9619L1.5748 18.5187C1.09041 19.8895 2.41089 21.21 3.78171 20.7256L3.33846 19.4712ZM5.57599 18.6806L3.33846 19.4712L3.78171 20.7256L6.01924 19.9349L5.57599 18.6806ZM10.8595 19.823C9.41725 19.823 8.06383 19.4514 6.88763 18.7993L6.24254 19.9628C7.61108 20.7216 9.18584 21.1534 10.8595 21.1534V19.823ZM19.0635 11.619C19.0635 16.1499 15.3904 19.823 10.8595 19.823V21.1534C16.1252 21.1534 20.3939 16.8847 20.3939 11.619H19.0635ZM10.8595 3.41495C15.3904 3.41495 19.0635 7.08802 19.0635 11.619H20.3939C20.3939 6.35327 16.1252 2.08456 10.8595 2.08456V3.41495ZM6.01924 19.9349C6.07732 19.9144 6.15881 19.9164 6.24254 19.9628L6.88763 18.7993C6.50128 18.5851 6.0247 18.522 5.57599 18.6806L6.01924 19.9349ZM2.37506 15.9728C2.41707 16.0545 2.41798 16.1325 2.39822 16.1884L3.6526 16.6317C3.80503 16.2003 3.75254 15.7424 3.55824 15.3645L2.37506 15.9728Z" fill="#2F667F"/>
<circle cx="6.469" cy="11.6632" r="1.10865" fill="#2F667F"/>
<circle cx="10.9036" cy="11.6632" r="1.10865" fill="#2F667F"/>
<circle cx="15.3381" cy="11.6632" r="1.10865" fill="#2F667F"/>
</svg>
