<svg width="13" height="13" viewBox="0 0 13 13" fill="none" xmlns="http://www.w3.org/2000/svg">
<path fill-rule="evenodd" clip-rule="evenodd" d="M6.67485 0.58728C3.25152 0.58728 0.484375 3.35442 0.484375 6.77776C0.484375 10.2011 3.25152 12.9682 6.67485 12.9682C10.0982 12.9682 12.8653 10.2011 12.8653 6.77776C12.8653 3.35442 10.0982 0.58728 6.67485 0.58728ZM6.67485 11.7301C3.94485 11.7301 1.72247 9.50776 1.72247 6.77776C1.72247 4.04776 3.94485 1.82538 6.67485 1.82538C9.40485 1.82538 11.6272 4.04776 11.6272 6.77776C11.6272 9.50776 9.40485 11.7301 6.67485 11.7301ZM6.67485 5.9049L8.89723 3.68252L9.77009 4.55538L7.54771 6.77776L9.77009 9.00014L8.89723 9.87299L6.67485 7.65061L4.45247 9.87299L3.57961 9.00014L5.80199 6.77776L3.57961 4.55538L4.45247 3.68252L6.67485 5.9049Z" fill="#539BBB"/>
</svg>
