<svg width="19" height="20" viewBox="0 0 19 20" fill="none" xmlns="http://www.w3.org/2000/svg">
<path d="M0.690918 8.93981C0.690918 7.83982 1.19463 6.80039 2.05799 6.11878L7.00002 2.21718C8.30583 1.18628 10.1485 1.18628 11.4543 2.21718L16.3963 6.11878C17.2597 6.80039 17.7634 7.83982 17.7634 8.93981V14.8357C17.7634 16.8208 16.1542 18.4299 14.1692 18.4299H12.8214C12.3251 18.4299 11.9228 18.0276 11.9228 17.5314V14.8357C11.9228 13.8432 11.1182 13.0386 10.1257 13.0386H8.3286C7.33609 13.0386 6.5315 13.8432 6.5315 14.8357V17.5314C6.5315 18.0276 6.1292 18.4299 5.63295 18.4299H4.28512C2.3001 18.4299 0.690918 16.8208 0.690918 14.8357L0.690918 8.93981Z" stroke="#FEFEFD" stroke-width="1.34783"/>
</svg>
