<svg width="12" height="12" viewBox="0 0 12 12" fill="none" xmlns="http://www.w3.org/2000/svg">
<path fill-rule="evenodd" clip-rule="evenodd" d="M8.14524 6.56404L11.6924 10.1112L10.77 11.0336L7.22285 7.48642C6.56047 7.96309 5.7619 8.25404 4.88904 8.25404C2.66666 8.25404 0.865234 6.45261 0.865234 4.23023C0.865234 2.00785 2.66666 0.206421 4.88904 0.206421C7.11143 0.206421 8.91285 2.00785 8.91285 4.23023C8.91285 5.10309 8.6219 5.90166 8.14524 6.56404ZM4.88904 1.44452C3.34762 1.44452 2.10333 2.6888 2.10333 4.23023C2.10333 5.77166 3.34762 7.01595 4.88904 7.01595C6.43047 7.01595 7.67476 5.77166 7.67476 4.23023C7.67476 2.6888 6.43047 1.44452 4.88904 1.44452Z" fill="#539BBB"/>
</svg>
