<svg width="22" height="22" viewBox="0 0 22 22" fill="none" xmlns="http://www.w3.org/2000/svg">
<circle cx="2.66077" cy="2.66077" r="2.66077" transform="matrix(-1 0 0 1 13.835 8.34668)" stroke="#2F667F" stroke-width="1.33038"/>
<path d="M15.1653 4.74352L14.8327 5.31959L14.8327 5.31959L15.1653 4.74352ZM15.1653 17.271L14.8327 16.6949L14.8327 16.6949L15.1653 17.271ZM7.18304 17.271L7.51563 16.6949L7.51563 16.6949L7.18304 17.271ZM7.18304 4.74352L7.51563 5.31959L7.51563 5.31959L7.18304 4.74352ZM8.44507 3.03848L7.797 2.88853L7.797 2.88853L8.44507 3.03848ZM8.9916 2.40873L8.82843 1.76386L8.9916 2.40873ZM2.79829 8.08313L2.17027 7.86388L2.79829 8.08313ZM5.24229 16.9855L5.08958 16.338L5.24229 16.9855ZM4.43618 16.7751L3.93104 17.2079L4.43618 16.7751ZM8.99168 19.6061L9.15485 18.9612L8.99168 19.6061ZM8.44513 18.9763L7.79704 19.1262L8.44513 18.9763ZM13.9033 18.9762L14.5513 19.1261L13.9033 18.9762ZM13.3567 19.6061L13.1935 18.9612L13.3567 19.6061ZM17.9121 16.775L18.4172 17.2078L17.9121 16.775ZM17.106 16.9854L16.9533 17.6329L17.106 16.9854ZM19.55 8.08313L20.178 7.86389L19.55 8.08313ZM19.2394 8.95288L19.6624 9.46625L19.2394 8.95288ZM3.10883 13.0619L3.53182 13.5753L3.10883 13.0619ZM17.9119 5.23948L17.4067 5.6723L17.9119 5.23948ZM5.24245 5.02909L5.08978 5.67652L5.08978 5.67652L5.24245 5.02909ZM19.2394 13.0619L19.6624 12.5486L19.2394 13.0619ZM19.55 13.9317L20.178 14.1509L19.55 13.9317ZM13.9033 3.0385L13.2552 3.18846L13.9033 3.0385ZM13.3568 2.40876L13.52 1.7639L13.3568 2.40876ZM13.2552 3.18846C13.4555 4.05397 14.0015 4.83968 14.8327 5.31959L15.4979 4.16744C14.9992 3.87947 14.672 3.40985 14.5514 2.88854L13.2552 3.18846ZM14.8327 5.31959C15.5963 5.76045 16.4636 5.86397 17.2585 5.67654L16.9532 4.38167C16.475 4.49441 15.9565 4.43221 15.4979 4.16744L14.8327 5.31959ZM20.178 7.86389C19.7828 6.73188 19.1805 5.69773 18.417 4.80666L17.4067 5.6723C18.0644 6.43978 18.5823 7.32959 18.9219 8.30237L20.178 7.86389ZM18.9347 11.0074C18.9347 10.3871 19.2169 9.83333 19.6624 9.46625L18.8164 8.4395C18.0774 9.04845 17.6043 9.97296 17.6043 11.0074H18.9347ZM19.6624 12.5486C19.2169 12.1815 18.9347 11.6277 18.9347 11.0074H17.6043C17.6043 12.0418 18.0774 12.9664 18.8164 13.5753L19.6624 12.5486ZM18.4172 17.2078C19.1806 16.3169 19.7828 15.2828 20.178 14.1509L18.9219 13.7124C18.5824 14.6851 18.0645 15.5748 17.407 16.3423L18.4172 17.2078ZM15.4979 17.8471C15.9566 17.5823 16.4751 17.5201 16.9533 17.6329L17.2587 16.338C16.4637 16.1505 15.5964 16.254 14.8327 16.6949L15.4979 17.8471ZM14.5513 19.1261C14.6719 18.6048 14.9991 18.1351 15.4979 17.8471L14.8327 16.6949C14.0014 17.1749 13.4554 17.9607 13.2552 18.8263L14.5513 19.1261ZM11.1741 20.5418C11.9827 20.5418 12.7688 20.441 13.5199 20.2509L13.1935 18.9612C12.5482 19.1245 11.8718 19.2114 11.1741 19.2114V20.5418ZM8.82851 20.251C9.5796 20.441 10.3656 20.5418 11.1741 20.5418V19.2114C10.4765 19.2114 9.80013 19.1245 9.15485 18.9612L8.82851 20.251ZM6.85044 17.8471C7.34929 18.1351 7.67646 18.6048 7.79704 19.1262L9.09321 18.8264C8.893 17.9607 8.34698 17.1749 7.51563 16.6949L6.85044 17.8471ZM5.395 17.6329C5.87324 17.5201 6.3918 17.5823 6.85044 17.8471L7.51563 16.6949C6.75195 16.254 5.88458 16.1505 5.08958 16.338L5.395 17.6329ZM2.17027 14.1509C2.56542 15.2828 3.16763 16.3169 3.93104 17.2079L4.94132 16.3423C4.28378 15.5748 3.76588 14.6851 3.42632 13.7124L2.17027 14.1509ZM3.41356 11.0074C3.41356 11.6277 3.13135 12.1815 2.68584 12.5486L3.53182 13.5753C4.2709 12.9664 4.74394 12.0418 4.74394 11.0074H3.41356ZM2.68584 9.46625C3.13135 9.83333 3.41356 10.3871 3.41356 11.0074H4.74394C4.74394 9.97296 4.2709 9.04844 3.53182 8.43949L2.68584 9.46625ZM3.9313 4.80663C3.16776 5.6977 2.56546 6.73187 2.17027 7.86388L3.42632 8.30237C3.76592 7.32958 4.2839 6.43976 4.94153 5.67228L3.9313 4.80663ZM6.85044 4.16744C6.39183 4.43222 5.87333 4.49442 5.39512 4.38165L5.08978 5.67652C5.88473 5.86398 6.75202 5.76046 7.51563 5.31959L6.85044 4.16744ZM7.797 2.88853C7.67638 3.40984 7.34923 3.87947 6.85044 4.16744L7.51563 5.31959C8.34688 4.83967 8.89287 4.05396 9.09314 3.18843L7.797 2.88853ZM11.1741 1.47299C10.3655 1.47299 9.57954 1.5738 8.82843 1.76386L9.15478 3.05359C9.80008 2.89031 10.4765 2.80338 11.1741 2.80338V1.47299ZM13.52 1.7639C12.7688 1.57381 11.9828 1.47299 11.1741 1.47299V2.80338C11.8718 2.80338 12.5483 2.89032 13.1936 3.05363L13.52 1.7639ZM9.09314 3.18843C9.10699 3.12859 9.13045 3.08638 9.14865 3.06424C9.16428 3.04522 9.16707 3.05048 9.15478 3.05359L8.82843 1.76386C8.21538 1.91898 7.89883 2.44842 7.797 2.88853L9.09314 3.18843ZM3.53182 8.43949C3.47782 8.395 3.44643 8.34687 3.43384 8.31468C3.42325 8.2876 3.43105 8.28881 3.42632 8.30237L2.17027 7.86388C1.93434 8.5397 2.29988 9.14825 2.68584 9.46625L3.53182 8.43949ZM5.08958 16.338C5.02995 16.3521 4.98182 16.3498 4.95391 16.3433C4.92991 16.3377 4.93321 16.3328 4.94132 16.3423L3.93104 17.2079C4.34174 17.6872 4.95547 17.7366 5.395 17.6329L5.08958 16.338ZM9.15485 18.9612C9.16714 18.9643 9.16435 18.9696 9.14872 18.9506C9.13051 18.9284 9.10705 18.8862 9.09321 18.8264L7.79704 19.1262C7.89884 19.5663 8.2154 20.0958 8.82851 20.251L9.15485 18.9612ZM13.2552 18.8263C13.2413 18.8862 13.2179 18.9284 13.1997 18.9506C13.184 18.9696 13.1812 18.9643 13.1935 18.9612L13.5199 20.2509C14.133 20.0958 14.4495 19.5663 14.5513 19.1261L13.2552 18.8263ZM17.407 16.3423C17.4151 16.3328 17.4184 16.3377 17.3944 16.3433C17.3665 16.3498 17.3183 16.3521 17.2587 16.338L16.9533 17.6329C17.3928 17.7365 18.0065 17.6872 18.4172 17.2078L17.407 16.3423ZM18.9219 8.30237C18.9172 8.28881 18.925 8.2876 18.9144 8.31468C18.9018 8.34687 18.8704 8.395 18.8164 8.4395L19.6624 9.46625C20.0484 9.14825 20.4139 8.5397 20.178 7.86389L18.9219 8.30237ZM3.42632 13.7124C3.43105 13.726 3.42325 13.7272 3.43384 13.7001C3.44643 13.6679 3.47782 13.6198 3.53182 13.5753L2.68584 12.5486C2.29988 12.8666 1.93434 13.4751 2.17027 14.1509L3.42632 13.7124ZM17.2585 5.67654C17.3181 5.66248 17.3662 5.6648 17.3941 5.67129C17.4181 5.67688 17.4148 5.68176 17.4067 5.6723L18.417 4.80666C18.0063 4.32741 17.3927 4.27804 16.9532 4.38167L17.2585 5.67654ZM4.94153 5.67228C4.93343 5.68173 4.93013 5.67686 4.95413 5.67127C4.98203 5.66477 5.03016 5.66246 5.08978 5.67652L5.39512 4.38165C4.95562 4.27801 4.34197 4.32736 3.9313 4.80663L4.94153 5.67228ZM18.8164 13.5753C18.8704 13.6198 18.9018 13.6679 18.9144 13.7001C18.925 13.7272 18.9172 13.726 18.9219 13.7124L20.178 14.1509C20.4139 13.4751 20.0484 12.8666 19.6624 12.5486L18.8164 13.5753ZM14.5514 2.88854C14.4495 2.44845 14.133 1.91903 13.52 1.7639L13.1936 3.05363C13.1813 3.05052 13.1841 3.04526 13.1997 3.06427C13.2179 3.08641 13.2414 3.12862 13.2552 3.18846L14.5514 2.88854Z" fill="#2F667F"/>
</svg>
