<svg width="22" height="21" viewBox="0 0 22 21" fill="none" xmlns="http://www.w3.org/2000/svg">
<circle cx="2.66667" cy="2.66667" r="2.66667" transform="matrix(-1 0 0 1 13.3335 8.27777)" stroke="#FEFEFE" stroke-width="1.33333"/>
<path d="M14.667 4.66665L14.3336 5.244L14.3336 5.244L14.667 4.66665ZM14.667 17.2219L15.0003 17.7992L15.0003 17.7992L14.667 17.2219ZM6.66696 17.2219L7.00029 16.6445L7.00029 16.6445L6.66696 17.2219ZM6.66696 4.66665L7.00029 5.244L7.00029 5.244L6.66696 4.66665ZM7.93179 2.95783L7.28229 2.80755L7.93179 2.95783ZM2.58372 8.88534L2.15979 9.39986L2.58372 8.88534ZM2.27249 8.01367L1.64308 7.79394L2.27249 8.01367ZM4.72191 16.9357L4.56886 16.2869L4.72191 16.9357ZM3.91401 16.7249L3.40775 17.1587L3.91401 16.7249ZM8.47961 19.5622L8.31608 20.2085L8.47961 19.5622ZM7.93185 18.931L7.28233 19.0812L7.93185 18.931ZM13.4021 18.9309L14.0516 19.0812L14.0516 19.0812L13.4021 18.9309ZM12.8543 19.5622L12.6908 18.9159L12.8543 19.5622ZM17.4198 16.7249L17.9261 17.1586L17.4198 16.7249ZM16.6119 16.9357L16.765 16.2869L16.6119 16.9357ZM19.0613 8.01367L18.4319 8.2334L19.0613 8.01367ZM18.7501 8.88534L18.3262 8.37083L18.7501 8.88534ZM2.27249 13.8752L2.90191 13.6555L2.27249 13.8752ZM2.58372 13.0035L2.15979 12.489L2.58372 13.0035ZM16.6118 4.95287L16.7648 5.60175L16.6118 4.95287ZM17.4196 5.16372L16.9133 5.5975L17.4196 5.16372ZM3.91425 5.16369L3.40801 4.72991L3.91425 5.16369ZM4.72207 4.95285L4.56906 5.60172L4.72207 4.95285ZM18.7501 13.0035L19.174 12.489L18.7501 13.0035ZM19.0613 13.8752L19.6907 14.0949L19.0613 13.8752ZM13.4021 2.95785L12.7526 3.10814L13.4021 2.95785ZM12.8544 2.32672L12.6909 2.97301L12.8544 2.32672ZM12.7526 3.10814C12.9533 3.97558 13.5005 4.76303 14.3336 5.244L15.0003 4.0893C14.5004 3.80069 14.1725 3.33003 14.0516 2.80756L12.7526 3.10814ZM14.3336 5.244C15.0989 5.68584 15.9681 5.78959 16.7648 5.60175L16.4588 4.304C15.9795 4.417 15.4599 4.35466 15.0003 4.0893L14.3336 5.244ZM19.6907 7.79394C19.2947 6.65942 18.691 5.62298 17.9258 4.72994L16.9133 5.5975C17.5724 6.36668 18.0915 7.25846 18.4319 8.2334L19.6907 7.79394ZM18.4447 10.9444C18.4447 10.3228 18.7275 9.76775 19.174 9.39986L18.3262 8.37083C17.5854 8.98113 17.1113 9.90769 17.1113 10.9444H18.4447ZM19.174 12.489C18.7275 12.1211 18.4447 11.5661 18.4447 10.9444H17.1113C17.1113 11.9812 17.5854 12.9077 18.3262 13.518L19.174 12.489ZM17.9261 17.1586C18.6912 16.2657 19.2947 15.2293 19.6907 14.0949L18.4319 13.6555C18.0916 14.6303 17.5725 15.522 16.9136 16.2911L17.9261 17.1586ZM15.0003 17.7992C15.4599 17.5339 15.9796 17.4715 16.4589 17.5846L16.765 16.2869C15.9682 16.0989 15.099 16.2027 14.3336 16.6445L15.0003 17.7992ZM14.0516 19.0812C14.1725 18.5586 14.5003 18.0879 15.0003 17.7992L14.3336 16.6445C13.5004 17.1256 12.9532 17.9132 12.7526 18.7807L14.0516 19.0812ZM10.6669 20.5C11.4773 20.5 12.2651 20.399 13.0179 20.2085L12.6908 18.9159C12.044 19.0795 11.3661 19.1667 10.6669 19.1667V20.5ZM8.31608 20.2085C9.06884 20.399 9.85655 20.5 10.6669 20.5V19.1667C9.96773 19.1667 9.28986 19.0795 8.64315 18.9159L8.31608 20.2085ZM6.33363 17.7992C6.83358 18.0879 7.16147 18.5586 7.28233 19.0812L8.58137 18.7807C8.38072 17.9132 7.83348 17.1256 7.00029 16.6445L6.33363 17.7992ZM4.87496 17.5846C5.35426 17.4715 5.87396 17.5339 6.33363 17.7992L7.00029 16.6445C6.23492 16.2027 5.36562 16.0989 4.56886 16.2869L4.87496 17.5846ZM1.64308 14.0949C2.0391 15.2293 2.64265 16.2657 3.40775 17.1587L4.42027 16.2911C3.76128 15.522 3.24223 14.6303 2.90191 13.6555L1.64308 14.0949ZM2.88912 10.9444C2.88912 11.5661 2.60629 12.1211 2.15979 12.489L3.00765 13.518C3.74836 12.9077 4.22245 11.9812 4.22245 10.9444H2.88912ZM2.15979 9.39986C2.60629 9.76775 2.88912 10.3228 2.88912 10.9444H4.22245C4.22245 9.90769 3.74836 8.98113 3.00765 8.37083L2.15979 9.39986ZM3.40801 4.72991C2.64278 5.62295 2.03914 6.65941 1.64308 7.79394L2.90191 8.2334C3.24226 7.25845 3.76139 6.36666 4.42049 5.59747L3.40801 4.72991ZM6.33363 4.0893C5.874 4.35467 5.35435 4.417 4.87508 4.30398L4.56906 5.60172C5.36577 5.7896 6.23498 5.68585 7.00029 5.244L6.33363 4.0893ZM7.28229 2.80755C7.16139 3.33002 6.83352 3.80069 6.33363 4.0893L7.00029 5.244C7.83338 4.76302 8.38059 3.97556 8.5813 3.10811L7.28229 2.80755ZM10.6669 1.38888C9.85652 1.38888 9.06878 1.4899 8.316 1.68039L8.64308 2.97298C9.28981 2.80933 9.9677 2.72221 10.6669 2.72221V1.38888ZM13.0179 1.68043C12.2651 1.48992 11.4773 1.38888 10.6669 1.38888V2.72221C11.3661 2.72221 12.0441 2.80934 12.6909 2.97301L13.0179 1.68043ZM8.5813 3.10811C8.59518 3.04814 8.61869 3.00584 8.63693 2.98365C8.6526 2.96459 8.65539 2.96987 8.64308 2.97298L8.316 1.68039C7.70159 1.83586 7.38434 2.36647 7.28229 2.80755L8.5813 3.10811ZM3.00765 8.37083C2.95353 8.32624 2.92207 8.278 2.90945 8.24573C2.89884 8.2186 2.90665 8.21981 2.90191 8.2334L1.64308 7.79394C1.40663 8.47125 1.77298 9.08116 2.15979 9.39986L3.00765 8.37083ZM4.56886 16.2869C4.5091 16.301 4.46086 16.2987 4.43289 16.2921C4.40884 16.2865 4.41215 16.2817 4.42027 16.2911L3.40775 17.1587C3.81936 17.6391 4.43445 17.6885 4.87496 17.5846L4.56886 16.2869ZM8.64315 18.9159C8.65546 18.919 8.65267 18.9243 8.637 18.9052C8.61875 18.883 8.59524 18.8407 8.58137 18.7807L7.28233 19.0812C7.38435 19.5223 7.70161 20.053 8.31608 20.2085L8.64315 18.9159ZM12.7526 18.7807C12.7387 18.8407 12.7152 18.883 12.6969 18.9052C12.6813 18.9243 12.6785 18.919 12.6908 18.9159L13.0179 20.2085C13.6323 20.053 13.9496 19.5223 14.0516 19.0812L12.7526 18.7807ZM16.9136 16.2911C16.9217 16.2816 16.925 16.2865 16.9009 16.2921C16.873 16.2986 16.8247 16.3009 16.765 16.2869L16.4589 17.5846C16.8994 17.6885 17.5145 17.639 17.9261 17.1586L16.9136 16.2911ZM18.4319 8.2334C18.4271 8.21981 18.435 8.2186 18.4243 8.24573C18.4117 8.278 18.3803 8.32624 18.3262 8.37083L19.174 9.39986C19.5608 9.08116 19.9272 8.47126 19.6907 7.79394L18.4319 8.2334ZM2.90191 13.6555C2.90665 13.6691 2.89884 13.6703 2.90945 13.6431C2.92207 13.6109 2.95353 13.5626 3.00765 13.518L2.15979 12.489C1.77298 12.8077 1.40663 13.4176 1.64308 14.0949L2.90191 13.6555ZM16.7648 5.60175C16.8245 5.58766 16.8727 5.58997 16.9007 5.59649C16.9248 5.60209 16.9215 5.60698 16.9133 5.5975L17.9258 4.72994C17.5142 4.24962 16.8992 4.20014 16.4588 4.304L16.7648 5.60175ZM4.42049 5.59747C4.41237 5.60695 4.40906 5.60206 4.43311 5.59646C4.46107 5.58995 4.50931 5.58763 4.56906 5.60172L4.87508 4.30398C4.43461 4.20012 3.81959 4.24958 3.40801 4.72991L4.42049 5.59747ZM18.3262 13.518C18.3803 13.5626 18.4117 13.6109 18.4243 13.6431C18.435 13.6703 18.4271 13.6691 18.4319 13.6555L19.6907 14.0949C19.9272 13.4176 19.5608 12.8077 19.174 12.489L18.3262 13.518ZM14.0516 2.80756C13.9496 2.3665 13.6323 1.8359 13.0179 1.68043L12.6909 2.97301C12.6785 2.9699 12.6813 2.96463 12.697 2.98368C12.7152 3.00587 12.7387 3.04817 12.7526 3.10814L14.0516 2.80756Z" fill="#FEFEFE"/>
</svg>
