<svg width="58" height="57" viewBox="0 0 58 57" fill="none" xmlns="http://www.w3.org/2000/svg">
<circle cx="26.259" cy="26.1591" r="21.1262" stroke="#539BBB" stroke-width="3.16893"/>
<path d="M26.2593 17.7086V25.5938C26.2593 25.947 26.4358 26.2768 26.7297 26.4727L32.5971 30.3843" stroke="#539BBB" stroke-width="3.16893" stroke-linecap="round"/>
<g filter="url(#filter0_d_5031_556)">
<circle cx="44.062" cy="43.9626" r="10.1406" fill="#FF0000"/>
<path d="M44.7314 38.2796L44.5619 44.603H43.3233L43.1538 38.2796H44.7314ZM43.9883 47.4322C43.7188 47.4322 43.4928 47.3409 43.3103 47.1584C43.1278 46.9759 43.0365 46.7499 43.0365 46.4804C43.0365 46.211 43.1278 45.985 43.3103 45.8025C43.4928 45.6199 43.7188 45.5287 43.9883 45.5287C44.249 45.5287 44.4707 45.6199 44.6532 45.8025C44.8357 45.985 44.927 46.211 44.927 46.4804C44.927 46.7499 44.8357 46.9759 44.6532 47.1584C44.4707 47.3409 44.249 47.4322 43.9883 47.4322Z" fill="white"/>
</g>
<defs>
<filter id="filter0_d_5031_556" x="33.9214" y="33.822" width="23.1786" height="23.1785" filterUnits="userSpaceOnUse" color-interpolation-filters="sRGB">
<feFlood flood-opacity="0" result="BackgroundImageFix"/>
<feColorMatrix in="SourceAlpha" type="matrix" values="0 0 0 0 0 0 0 0 0 0 0 0 0 0 0 0 0 0 127 0" result="hardAlpha"/>
<feOffset dx="1.44865" dy="1.44865"/>
<feGaussianBlur stdDeviation="0.724327"/>
<feComposite in2="hardAlpha" operator="out"/>
<feColorMatrix type="matrix" values="0 0 0 0 0 0 0 0 0 0 0 0 0 0 0 0 0 0 0.25 0"/>
<feBlend mode="normal" in2="BackgroundImageFix" result="effect1_dropShadow_5031_556"/>
<feBlend mode="normal" in="SourceGraphic" in2="effect1_dropShadow_5031_556" result="shape"/>
</filter>
</defs>
</svg>
